<svg width="542" height="500" viewBox="0 0 542 500" fill="none" xmlns="http://www.w3.org/2000/svg">
<g filter="url(#filter0_d)">
<path d="M85.6248 115.985C86.2712 118.256 86.7899 120.272 87.1807 122.032C87.8721 125.145 88.4131 128.86 88.8036 133.177C86.5625 133.319 84.9682 133.496 84.0206 133.706C82.1932 134.112 79.7114 134.77 76.5753 135.679L76.0677 135.792C76.1353 136.416 76.4998 138.218 77.1612 141.196C78.5892 147.626 82.4336 163.817 88.6946 189.771C87.198 190.387 85.096 190.996 82.3886 191.597L79.4444 192.251C75.654 193.093 72.7474 193.916 70.7243 194.72C70.4461 194.427 70.1115 193.72 69.7206 192.599L68.2428 193.141C67.7691 192.607 67.3143 191.358 66.8784 189.395L63.5302 173.839C61.3806 164.16 58.5808 152.992 55.1307 140.335C54.5742 140.388 53.7206 140.542 52.57 140.798C52.1639 140.888 51.4194 141.053 50.3364 141.294C49.3211 141.519 48.366 141.696 47.4711 141.823C46.6439 141.936 45.8279 141.94 45.0233 141.834C44.9255 141.714 44.8127 141.526 44.6849 141.27C44.6248 141 44.4368 140.793 44.121 140.65C43.8052 140.507 43.2788 140.375 42.5418 140.255C42.2335 139.826 41.7599 138.653 41.1209 136.735C40.5496 134.802 40.0085 132.685 39.4974 130.384C38.6857 126.729 38.1408 124.116 37.8628 122.544C42.1269 121.597 45.3344 120.849 47.4852 120.3L57.2092 118.034C67.0234 115.855 75.2959 114.408 82.0266 113.695L83.1433 114.406L83.3688 115.421L84.5081 115.274L85.6248 115.985ZM39.1035 123.334L39.2501 123.514C39.3102 124.424 39.5281 125.725 39.9039 127.417C41.5423 134.795 42.6398 138.777 43.1962 139.364C43.5647 139.424 44.6288 139.259 46.3886 138.868C48.7575 138.342 50.6339 137.996 52.0176 137.831C53.3864 137.598 54.5971 137.613 55.6499 137.876L55.774 137.955C59.0512 150.154 62.0276 162.277 64.7033 174.325C65.8607 179.536 66.7926 184.052 67.499 187.873L68.1754 190.918L68.5024 191.911C69.6757 191.438 70.973 191.043 72.3943 190.727L76.6584 189.78C80.6518 188.893 83.4306 188.134 84.9949 187.503L84.9498 187.3C78.7039 161.414 74.9421 145.595 73.6644 139.842L72.8527 136.187C72.5521 134.833 72.4394 134.006 72.5146 133.705L72.5485 133.378L72.8531 133.31C76.3276 132.325 79.0801 131.608 81.1106 131.157C82.7351 130.796 84.1113 130.597 85.2393 130.559C84.984 127.491 84.4656 124.197 83.6839 120.677C83.3683 119.256 82.8572 117.274 82.1506 114.733C75.2995 115.544 67.0684 117.017 57.4572 119.151L39.1035 123.334ZM100.676 108.274C101.639 108.132 102.346 108.436 102.797 109.188C103.316 109.926 103.786 111.242 104.207 113.137L105.683 120.266L108.242 132.269C110.785 129.645 114.086 127.882 118.147 126.98C120.313 126.499 122.494 126.405 124.69 126.699C126.886 126.992 128.664 127.805 130.025 129.136L131.447 129.779C133.507 130.742 135.649 136.232 137.874 146.249C138.46 148.889 139.272 152.863 140.309 158.173C141.316 163.347 142.083 167.118 142.609 169.487C143.21 172.195 143.894 174.955 144.661 177.767C142.299 178.647 139.494 179.448 136.245 180.169L130.154 181.522C129.981 181.063 129.797 180.394 129.601 179.514L127.672 179.942C127.003 177.889 125.992 173.817 124.639 167.725L123.512 162.649C122.7 158.994 121.979 156.065 121.347 153.861C120.701 151.59 119.9 149.744 118.945 148.322C118.427 148.224 117.693 148.281 116.746 148.491C114.715 148.942 113.444 149.935 112.933 151.469C112.489 152.988 112.695 155.676 113.552 159.534C113.958 161.362 114.589 163.885 115.446 167.104C116.333 170.458 116.949 172.913 117.295 174.47C117.941 177.38 118.37 179.949 118.58 182.175L118.828 183.291C116.594 184.427 114.699 185.167 113.142 185.513C112.195 185.723 111.443 185.855 110.886 185.907L108.427 186.347L107.31 186.595C106.295 186.821 105.329 187.106 104.411 187.452L103.915 185.218L101.93 185.872C100.201 178.089 98.7467 171.7 97.5667 166.706L90.6784 136.17L88.108 124.596C86.5146 117.421 85.5 112.533 85.0642 109.931C86.7337 109.773 88.2792 109.536 89.7005 109.221C90.242 109.1 91.0994 108.803 92.2726 108.33C93.5135 107.841 95.2169 107.356 97.3828 106.875C99.2103 106.469 100.248 106.665 100.496 107.462L100.676 108.274ZM99.8078 108.68C99.6876 108.139 99.5447 107.816 99.3793 107.71C99.1988 107.537 98.804 107.518 98.1949 107.654C96.2997 108.075 94.2052 108.717 91.9114 109.582C90.8586 109.958 90.1967 110.176 89.926 110.236L88.7077 110.506C87.8278 110.702 87.0344 110.807 86.3275 110.822C87.9959 118.974 89.6569 126.773 91.3103 134.218L94.4219 148.229L99.574 170.948C100.423 174.453 101.464 178.98 102.697 184.53C103.494 184.282 104.57 184.008 105.923 183.707L110.819 182.726C112.24 182.411 113.684 181.877 115.151 181.125L115.061 180.719C114.835 178.425 114.415 175.891 113.798 173.116C113.407 171.356 112.769 168.799 111.882 165.445C110.995 162.091 110.356 159.534 109.965 157.774C109.063 153.713 108.962 150.859 109.662 149.212C110.346 147.498 111.805 146.392 114.039 145.896C116.475 145.355 118.197 145.754 119.205 147.093C120.265 148.349 121.066 149.875 121.607 151.673C122.133 153.403 122.505 154.598 122.723 155.26C123.084 156.245 123.513 157.855 124.009 160.088L124.798 163.642L126.466 171.155L127.188 174.404C127.639 176.434 128.03 177.874 128.361 178.724L134.272 177.518C136.708 176.977 138.938 176.304 140.961 175.5C140.255 172.958 139.713 170.841 139.338 169.149C138.812 166.78 138.03 162.94 136.993 157.631C135.896 152.051 135.061 147.975 134.49 145.403C133.453 140.732 132.45 137.014 131.48 134.246C130.495 131.411 129.472 129.685 128.412 129.068C125.645 127.481 122.265 127.131 118.271 128.017C116.105 128.498 114.252 129.265 112.71 130.318C111.168 131.371 109.75 132.502 108.457 133.713C107.148 134.856 106.287 135.615 105.873 135.991L100.214 110.508L99.8078 108.68ZM158.812 150.228C159.203 151.988 159.628 153.421 160.086 154.526C160.597 155.549 161.368 156.621 162.398 157.742L162.443 157.945C163.428 158.223 164.564 158.219 165.85 157.934C167.271 157.618 168.313 156.712 168.975 155.216C169.622 153.652 169.652 151.55 169.066 148.91L168.841 147.895C170.36 147.699 171.492 147.519 172.236 147.354L175.767 146.463C176.496 146.23 177.64 145.941 179.196 145.595C180.347 145.339 181.907 145.17 183.878 145.088L184.16 146.836L186.359 146.667C187.983 153.977 188.335 159.403 187.417 162.945C186.567 166.472 184.958 168.818 182.589 169.984C180.302 171.201 176.621 172.374 171.545 173.502C167.483 174.403 164.167 174.82 161.595 174.752C159.106 174.737 156.79 173.902 154.647 172.247C150.962 170.367 147.842 167.189 145.285 162.714C142.729 158.239 140.827 153.193 139.579 147.575C138.121 141.01 137.705 135.456 138.329 130.914C139.029 127.349 140.951 124.33 144.095 121.856C147.224 119.315 150.954 117.563 155.286 116.601C160.497 115.444 165.111 115.591 169.127 117.043C173.21 118.48 176.519 120.906 179.052 124.32C181.639 127.652 183.428 131.551 184.42 136.019C184.511 136.425 184.792 138.173 185.266 141.264C184.055 141.888 180.704 142.952 175.215 144.455C169.792 145.943 164.949 147.161 160.685 148.108C159.67 148.333 158.918 148.465 158.429 148.502L158.812 150.228ZM154.661 145.93C155.519 145.953 157.876 145.536 161.734 144.679C165.457 143.852 169.462 142.856 173.748 141.691C178.02 140.458 180.667 139.586 181.69 139.075C181.375 137.015 181.119 135.544 180.924 134.664C179.421 127.896 176.725 122.955 172.838 119.841C169.003 116.644 163.227 115.903 155.511 117.616C151.45 118.518 147.882 120.199 144.805 122.657C141.782 125.033 139.95 127.819 139.311 131.015C138.686 135.558 139.155 141.348 140.719 148.387C142.282 155.427 144.819 161.255 148.331 165.873C151.842 170.491 156.185 172.616 161.359 172.248L165.848 171.358C168.18 170.982 169.988 170.651 171.274 170.366C174.455 169.659 177.088 168.719 179.171 167.547C181.322 166.359 182.837 164.708 183.718 162.595C184.432 161.655 184.696 159.963 184.508 157.519C184.305 155.007 183.817 151.209 183.043 146.126C181.983 146.148 180.64 146.34 179.016 146.7L175.079 147.681C174.282 147.929 173.172 148.211 171.751 148.527C170.939 148.707 170.424 148.786 170.205 148.763L170.386 149.576C170.972 152.215 170.806 154.347 169.889 155.972C169.039 157.581 167.768 158.573 166.075 158.949C160.864 160.107 157.194 156.376 155.067 147.758L154.661 145.93ZM169.124 134.302C169.17 134.505 168.955 134.659 168.481 134.764C168.143 134.839 167.459 134.956 166.428 135.114C165.398 135.272 164.172 135.508 162.751 135.824L156.174 137.391C154.888 137.677 154.027 137.797 153.591 137.752C153.155 137.706 152.884 137.447 152.779 136.973C151.621 131.761 153.919 128.517 159.672 127.239C160.958 126.954 162.218 127.029 163.451 127.465C164.805 127.804 165.955 128.507 166.903 129.575C167.918 130.628 168.576 131.831 168.876 133.185L169.124 134.302ZM165.606 129.97C164.605 129.624 163.53 129.578 162.379 129.834C160.01 130.36 158.375 131.149 157.472 132.202C156.637 133.24 156.197 134.616 156.152 136.331L158.058 135.801L162.525 134.809L166.914 133.941L167.951 133.817L167.861 133.411C167.515 131.854 166.805 130.733 165.73 130.049L165.606 129.97Z" fill="black"/>
</g>
<g filter="url(#filter1_d)">
<path d="M88.3215 265.601C89.0881 269.053 89.8999 271.749 90.757 273.69C91.6141 275.63 92.7495 276.585 94.1633 276.555L94.0618 276.578L94.9981 276.477C96.6902 276.101 97.8672 275.484 98.5291 274.627C99.191 273.77 99.5032 272.777 99.4657 271.649C99.496 270.506 99.3946 268.931 99.1618 266.923C98.8462 264.862 98.6697 262.948 98.6324 261.181C100.099 261.068 101.509 260.862 102.863 260.561L107.612 259.4C110.184 258.829 112.293 258.573 113.94 258.634C114.151 258.942 114.286 259.231 114.346 259.502C114.459 259.69 114.621 259.938 114.831 260.247L116.422 260.213C117.955 262.642 119.031 265.244 119.647 268.02C120.699 272.757 120.507 277.168 119.07 281.251C117.701 285.32 115.264 288.737 111.759 291.504C108.269 294.339 104.02 296.312 99.0111 297.425C95.4915 298.206 91.957 298.281 88.4075 297.649C84.858 297.017 81.6884 295.697 78.8987 293.688C76.1616 291.597 74.248 288.897 73.158 285.588C71.3165 278.895 69.5313 271.657 67.8027 263.873L64.4545 248.317C64.2967 247.286 63.9773 245.688 63.4963 243.522L63.1467 242.428C62.6357 240.127 62.6171 237.965 63.0912 235.942L63.1137 236.043C63.7085 231.366 65.2882 227.606 67.853 224.764C70.4704 221.839 74.4188 219.79 79.6982 218.617C84.3684 217.58 89.1475 217.833 94.0355 219.375C98.9234 220.917 103.146 223.46 106.702 227.002C110.244 230.477 112.511 234.448 113.503 238.915C114.089 241.555 114.171 244.484 113.75 247.703C111.892 248.613 109.813 249.323 107.512 249.834C104.533 250.495 101.1 250.867 97.2124 250.949L96.6486 249.37C95.6709 249.445 95.043 249.336 94.7648 249.043C94.4866 248.749 94.2084 248.136 93.9303 247.204C93.7048 246.189 93.5056 245.452 93.3327 244.993C93.1448 244.466 92.8742 243.568 92.5209 242.297C92.2202 240.943 91.724 239.988 91.0322 239.431C90.3254 238.807 89.329 238.638 88.043 238.923C87.2985 239.089 86.4825 239.412 85.595 239.893C84.7753 240.359 84.2338 240.799 83.9705 241.213C83.8652 241.378 84.0454 243.149 84.5112 246.526C84.962 249.835 85.8488 254.467 87.1716 260.424L88.3215 265.601ZM85.7422 236.238C87.5696 235.832 89.0285 236.006 90.1189 236.758C91.1942 237.442 92.01 238.397 92.5664 239.623C93.1227 240.849 93.709 242.53 94.3254 244.666C94.4156 245.072 94.5772 245.64 94.8103 246.369C95.0433 247.099 95.2538 247.727 95.4417 248.253C98.5701 248.269 101.691 247.931 104.805 247.239C106.7 246.818 108.55 246.194 110.355 245.367C110.709 242.803 110.592 240.201 110.006 237.561C109.059 233.297 107.037 229.627 103.939 226.551C100.841 223.475 97.1298 221.316 92.8058 220.074C88.5495 218.818 84.2555 218.671 79.9237 219.633C75.3211 220.655 71.6811 222.493 69.0035 225.147C66.3109 227.734 64.6748 231.4 64.0951 236.145C63.7188 238.288 63.7261 240.24 64.1169 242C64.2522 242.609 64.3762 243.007 64.489 243.195C64.955 245.294 65.2669 246.858 65.4247 247.888L68.818 263.647C70.5316 271.363 72.3092 278.568 74.1508 285.261C75.579 289.774 78.41 292.767 82.6437 294.242C86.8774 295.716 91.4309 295.912 96.3042 294.83C101.042 293.778 105.103 291.917 108.488 289.248C111.857 286.511 114.215 283.217 115.562 279.367C116.961 275.434 117.157 271.2 116.15 266.665C115.579 264.093 114.673 261.773 113.432 259.705C112.071 259.652 110.274 259.874 108.04 260.37L102.682 261.666C101.937 261.832 100.941 261.982 99.6926 262.117C99.6323 263.125 99.7675 264.693 100.098 266.821C100.399 268.814 100.522 270.491 100.47 271.852C100.469 273.131 100.052 274.289 99.2171 275.327C98.4499 276.349 97.0849 277.078 95.122 277.514C92.2116 278.161 89.9519 277.1 88.3429 274.332C86.7866 271.482 85.4673 267.62 84.385 262.747L83.5733 259.092C82.1603 252.73 81.2623 247.887 80.8792 244.563C80.4961 241.239 80.4099 239.411 80.6205 239.08C81.0417 238.419 81.7637 237.832 82.7866 237.321C83.8094 236.81 84.7946 236.449 85.7422 236.238ZM116.103 239.936C116.637 237.544 118.273 235.477 121.011 233.732C123.816 231.973 127.114 230.672 130.904 229.831C131.461 229.778 132.721 229.534 134.683 229.098L137.097 228.455C139.669 227.884 142.264 227.734 144.881 228.005C147.498 228.276 149.792 229.01 151.762 230.206L151.66 230.228C151.923 230.454 152.311 230.758 152.822 231.142C153.318 231.458 153.758 231.68 154.142 231.808L154.018 231.729C156.116 232.541 157.875 234.707 159.296 238.227C160.785 241.732 162.13 246.191 163.333 251.606C164.4 256.412 165.2 261.454 165.733 266.733C166.267 272.013 166.127 275.382 165.315 276.84C164.344 279.187 162.723 281.003 160.452 282.288C158.181 283.574 155.421 284.578 152.172 285.299C148.72 286.066 145.889 286.588 143.678 286.866C141.534 287.129 139.308 287.019 137 286.538C134.774 286.109 132.495 285.123 130.164 283.582L129.047 282.871C126.513 281.374 124.536 279.185 123.115 276.305C121.679 273.357 120.502 269.818 119.585 265.689L118.774 262.034L118.109 258.56C117.928 257.748 117.722 256.977 117.489 256.247C117.255 255.518 117.071 254.849 116.936 254.24C116.29 251.329 115.869 249.114 115.674 247.595C115.478 246.076 115.587 244.17 116.001 241.876L115.9 241.899C115.877 241.477 115.855 241.056 115.832 240.635C115.878 240.199 115.953 239.898 116.058 239.733L116.081 239.834L116.047 240.161L116.103 239.936ZM118.977 258.154L120.646 265.667C121.969 271.623 124.047 276.346 126.882 279.836C129.769 283.243 133.917 284.808 139.324 284.53L144.118 283.572C146.449 283.196 148.258 282.866 149.544 282.58C152.725 281.874 155.357 280.934 157.441 279.761C159.524 278.588 161.006 276.945 161.886 274.832C162.781 273.426 162.954 270.689 162.406 266.62C161.925 262.537 161.068 257.08 159.836 250.252C159.701 249.643 159.152 247.492 158.19 243.799C157.213 240.039 156.138 237.117 154.965 235.034C153.845 232.868 152.593 231.548 151.209 231.074C147.502 228.772 142.738 228.268 136.917 229.561L133.081 230.519C132.202 230.714 131.517 230.831 131.028 230.868C127.576 231.635 124.508 232.849 121.823 234.511C119.138 236.172 117.566 238.048 117.107 240.139C116.949 242.944 116.926 245.399 117.038 247.505C117.151 249.611 117.448 251.747 117.929 253.913L118.977 258.154ZM137.986 245.41C142.724 244.358 145.875 247.351 147.438 254.39C148.085 257.301 148.468 259.666 148.588 261.486C148.693 263.238 148.29 264.783 147.38 266.122C146.47 267.46 144.831 268.393 142.462 268.919C140.431 269.37 138.675 269.298 137.194 268.704C135.712 268.109 134.754 266.831 134.318 264.868C134.19 263.973 133.878 262.409 133.382 260.175C132.691 257.062 132.225 254.644 131.984 252.922C131.796 251.117 131.955 249.91 132.459 249.301C133.436 247.308 135.279 246.011 137.986 245.41ZM135.73 251.557C135.263 252.016 135.271 253.648 135.751 256.453C136.285 259.175 136.98 262.466 137.837 266.324C138.078 267.406 138.566 268.008 139.303 268.129C140.04 268.249 141.018 268.174 142.236 267.903C146.365 266.986 148.114 265.107 147.482 262.264C147.077 258.519 146.693 255.834 146.333 254.21C145.837 251.976 145.183 250.31 144.371 249.212C143.626 248.099 142.34 247.745 140.513 248.151C140.107 248.241 139.377 248.474 138.324 248.85L138.426 248.828C137.215 249.452 136.369 250.279 135.887 251.309L135.73 251.557ZM177.518 224.699C180.383 221.932 183.745 220.12 187.603 219.263C189.769 218.782 191.882 218.703 193.943 219.027C195.988 219.283 197.793 220.054 199.357 221.34L201.421 219.603C203.211 218.069 204.825 216.859 206.261 215.971C207.698 215.084 209.431 214.415 211.462 213.964C213.628 213.483 215.808 213.39 218.004 213.683C220.2 213.977 221.979 214.789 223.34 216.12L224.761 216.764C226.821 217.726 228.964 223.216 231.189 233.234C231.775 235.873 232.586 239.848 233.624 245.157C234.631 250.331 235.397 254.103 235.923 256.472C236.525 259.179 237.209 261.939 237.975 264.752C235.614 265.632 232.809 266.432 229.56 267.154L223.468 268.506C223.295 268.048 223.111 267.378 222.916 266.498L220.987 266.927C220.318 264.874 219.307 260.801 217.954 254.71L216.826 249.634C216.015 245.979 215.293 243.049 214.662 240.846C214.015 238.575 213.215 236.728 212.26 235.307C211.741 235.209 211.042 235.258 210.162 235.453C208.74 235.769 207.691 236.321 207.014 237.111L207.555 239.548C208.127 242.12 208.916 245.993 209.923 251.167C210.93 256.341 211.696 260.112 212.222 262.481C212.493 263.7 213.158 266.215 214.218 270.028C211.857 270.908 209.051 271.708 205.803 272.43L199.609 273.805C199.437 273.346 199.252 272.677 199.057 271.797L197.128 272.226C196.459 270.172 195.448 266.1 194.095 260.008L192.968 254.932C192.096 251.006 191.352 247.976 190.735 245.84C190.119 243.704 189.341 241.959 188.401 240.605C187.882 240.508 187.149 240.564 186.201 240.774C184.171 241.225 182.9 242.218 182.388 243.752C181.944 245.271 182.151 247.959 183.008 251.817C183.413 253.645 184.045 256.168 184.902 259.387C185.789 262.741 186.405 265.196 186.751 266.753C187.397 269.664 187.825 272.232 188.036 274.458L188.284 275.575C186.05 276.71 184.155 277.45 182.598 277.796C181.651 278.007 180.898 278.138 180.342 278.191L177.883 278.63L176.766 278.878C175.751 279.104 174.784 279.389 173.867 279.735L173.371 277.502L171.385 278.156L167.022 258.99C164.993 250.492 163.49 244.043 162.513 239.643C161.716 236.056 160.709 231.202 159.492 225.08C161.161 224.922 162.706 224.685 164.128 224.37C164.669 224.25 165.527 223.953 166.7 223.479C167.941 222.99 169.644 222.506 171.81 222.024C173.638 221.619 174.675 221.814 174.923 222.611C175.014 223.018 175.401 223.322 176.085 223.525C176.822 223.646 177.262 223.868 177.405 224.191L177.518 224.699ZM172.622 222.803C170.727 223.224 168.633 223.867 166.339 224.731C165.286 225.107 164.624 225.325 164.353 225.385L163.135 225.656C162.255 225.851 161.462 225.956 160.755 225.971C161.085 228.099 161.702 231.194 162.604 235.255L163.979 241.448C164.896 245.577 166.294 251.552 168.173 259.373L172.153 276.813C172.95 276.565 174.025 276.291 175.379 275.99L180.275 275.01C181.696 274.694 183.14 274.16 184.607 273.408L184.516 273.002C184.291 270.709 183.87 268.174 183.254 265.399C182.863 263.639 182.224 261.082 181.337 257.728C180.45 254.374 179.811 251.817 179.421 250.057C178.519 245.996 178.418 243.142 179.117 241.495C179.802 239.781 181.261 238.676 183.494 238.18C185.931 237.638 187.653 238.037 188.661 239.376C189.721 240.632 190.522 242.159 191.063 243.956C191.589 245.686 191.961 246.882 192.179 247.543C192.54 248.529 192.968 250.138 193.464 252.372L194.254 255.925L195.922 263.438L196.644 266.687C197.095 268.717 197.485 270.158 197.816 271.007L203.727 269.801C206.164 269.26 208.394 268.587 210.417 267.783C209.77 265.512 209.282 263.631 208.951 262.142C208.455 259.909 207.734 256.34 206.787 251.437C205.75 246.128 204.953 242.221 204.397 239.716L203.405 235.249C204.48 234.016 205.83 233.219 207.455 232.858C209.891 232.317 211.606 232.682 212.598 233.953C213.591 235.224 214.358 236.759 214.899 238.556C215.44 240.353 215.82 241.583 216.038 242.245C216.399 243.23 216.827 244.839 217.323 247.073L218.112 250.626L219.781 258.139L220.502 261.388C220.953 263.419 221.344 264.859 221.675 265.709L227.586 264.502C230.023 263.961 232.252 263.289 234.276 262.484C233.569 259.942 233.028 257.825 232.652 256.133C232.126 253.764 231.344 249.925 230.307 244.616C229.21 239.035 228.376 234.959 227.805 232.387C226.767 227.717 225.764 223.998 224.794 221.231C223.809 218.395 222.787 216.669 221.727 216.052C218.959 214.465 215.579 214.115 211.586 215.002C209.217 215.528 207.235 216.359 205.641 217.494C204.046 218.63 201.921 220.415 199.266 222.852C198.229 221.377 196.571 220.467 194.292 220.121C192.081 219.76 189.893 219.82 187.727 220.301C185.561 220.782 183.707 221.549 182.165 222.601C180.624 223.654 179.206 224.785 177.912 225.996C176.604 227.139 175.742 227.898 175.329 228.274L174.912 225.917C174.401 223.615 173.637 222.577 172.622 222.803ZM267.609 207.461C271.128 209.236 273.861 212.109 275.809 216.08C277.741 219.983 279.59 225.112 281.357 231.467C282.529 236.747 282.814 241.548 282.212 245.872C281.595 250.129 279.925 253.163 277.202 254.975C274.856 256.561 271.821 257.768 268.099 258.595C266.339 258.986 264.575 259.2 262.808 259.237C261.056 259.342 259.585 259.278 258.397 259.045L260.878 269.254C261.223 270.811 261.584 272.755 261.96 275.086L262.512 279.012L262.76 280.128C262.835 280.467 262.064 280.993 260.447 281.707C258.898 282.406 257.142 282.974 255.179 283.41C252.336 284.041 249.998 284.383 248.163 284.436L247.779 282.71L245.681 282.856L243.99 275.241C242.607 269.015 240.473 260.043 237.586 248.326C236.857 245.363 235.993 241.79 234.993 237.609C233.979 233.36 232.863 228.494 231.645 223.012C230.262 216.785 229.311 212.344 228.793 209.689L234.557 208.302C235.828 207.949 237.682 207.502 240.119 206.961C241.54 206.645 242.653 206.54 243.458 206.645C244.33 206.736 244.856 207.187 245.037 207.999L245.082 208.202C246.029 207.992 246.526 207.988 246.571 208.191C248 206.311 250.068 205.071 252.776 204.469C258.393 203.222 263.338 204.219 267.609 207.461ZM274.213 252.549C276.831 250.903 278.361 248.041 278.806 243.966C279.317 239.875 279.002 235.257 277.86 230.113C276.319 224.134 274.706 219.272 273.022 215.527C271.338 211.782 268.85 208.89 265.556 206.851C262.262 204.813 257.908 204.395 252.493 205.597C248.906 206.394 246.733 208.439 245.973 211.733C245.83 212.049 245.724 212.214 245.657 212.229C245.386 212.29 244.942 211.571 244.326 210.075C243.777 208.563 243.589 207.717 243.762 207.537C243.055 207.552 242.059 207.702 240.773 207.987L230.034 210.479C230.507 212.931 231.3 216.661 232.412 221.669C233.645 227.219 234.768 232.119 235.783 236.368C236.798 240.617 237.662 244.189 238.376 247.085C241.353 259.208 243.562 268.518 245.005 275.016L246.494 281.717C247.975 281.672 249.968 281.371 252.472 280.815C254.164 280.439 255.706 280.026 257.097 279.575C258.571 279.176 259.293 278.91 259.263 278.774L259.015 277.657L258.429 274.059C258.279 272.743 257.896 270.697 257.279 267.922L256.242 263.252C255.581 260.274 254.983 257.743 254.45 255.66C254.75 256.375 255.976 256.777 258.127 256.868C260.263 256.89 262.684 256.601 265.392 256C269.182 255.158 272.122 254.008 274.213 252.549ZM253.462 218.593C256.237 217.976 258.764 218.8 261.042 221.064C263.32 223.328 264.858 226.253 265.654 229.841C266.241 232.48 266.44 234.496 266.252 235.887C266.574 240.858 263.893 243.975 258.207 245.238C256.177 245.688 254.703 245.767 253.785 245.474C252.853 245.113 252.086 244.218 251.485 242.789C250.951 241.345 250.263 238.728 249.421 234.937C248.67 231.553 248.204 228.816 248.024 226.725C247.911 224.619 248.235 222.878 248.994 221.502C249.807 220.044 251.296 219.074 253.462 218.593ZM264.639 230.066C264.038 227.359 263.004 225.103 261.538 223.298C260.124 221.41 258.335 220.706 256.169 221.187C254.274 221.608 252.98 222.499 252.288 223.86C251.649 225.139 251.404 226.756 251.554 228.711C251.757 230.583 252.212 233.11 252.918 236.291C253.354 238.254 253.771 239.973 254.17 241.447C254.553 242.853 254.929 243.906 255.297 244.605C255.733 244.651 256.222 244.613 256.764 244.493C257.373 244.358 257.779 244.267 257.982 244.222C263.126 243.08 265.537 240.343 265.214 236.011L265.27 235.785C265.466 234.748 265.421 233.586 265.135 232.3C264.85 231.014 264.684 230.269 264.639 230.066ZM321.642 192.265C322.018 193.318 322.273 194.149 322.408 194.758L322.634 195.773C322.972 197.616 323.525 200.263 324.291 203.715L326.918 215.063C327.557 217.62 328.44 221.437 329.567 226.513C330.454 230.507 331.262 234.624 331.991 238.866L332.149 239.576C332.465 240.998 332.596 242.069 332.543 242.791C332.49 243.513 331.979 244.088 331.009 244.517L329.587 244.833C328.64 245.043 327.407 245.246 325.887 245.441L322.921 245.994C322.447 246.099 321.751 246.324 320.834 246.67L318.623 247.268C317.48 247.237 316.619 246.718 316.04 245.711C315.085 245.568 314.46 245.316 314.167 244.955C311.129 247.902 307.883 249.759 304.431 250.526C300.844 251.322 297.317 250.472 293.851 247.975C290.452 245.463 287.489 242.037 284.963 237.697C282.49 233.275 280.749 228.797 279.742 224.262C278.6 219.118 278.503 214.523 279.451 210.477C280.384 206.364 282.163 203.021 284.788 200.45C287.48 197.863 290.756 196.141 294.614 195.284C296.509 194.864 297.994 194.676 299.069 194.721C300.212 194.751 301.344 195.21 302.465 196.098C302.457 195.744 302.405 195.188 302.307 194.428C302.209 193.669 302.273 193.157 302.499 192.894C302.725 192.631 303.142 192.432 303.751 192.296C304.36 192.161 304.917 192.109 305.421 192.139C305.977 192.086 306.492 192.007 306.966 191.902L307.88 191.699C309.64 191.308 313.028 190.733 318.044 189.975L319.16 190.685L319.51 191.78L320.525 191.554L321.642 192.265ZM306.988 192.962L304.225 193.47C303.548 193.62 303.239 194.15 303.299 195.06C303.344 195.902 303.54 197.102 303.886 198.659L303.998 199.166C303.058 197.812 302.04 196.902 300.942 196.436C299.844 195.97 298.705 195.796 297.524 195.917C296.343 196.037 294.704 196.33 292.605 196.796C289.439 197.57 286.769 199.299 284.596 201.984C282.475 204.585 281.06 207.811 280.353 211.662C279.646 215.512 279.78 219.637 280.757 224.036C281.644 228.03 283.095 232.004 285.11 235.96C287.125 239.916 289.572 243.101 292.452 245.516C295.385 247.847 298.476 248.652 301.725 247.931C304.026 247.42 306.275 246.352 308.471 244.728C310.719 243.021 312.502 241.134 313.818 239.066C313.908 239.472 313.969 240.063 313.999 240.837C314.013 241.544 314.081 242.168 314.201 242.71C314.457 243.86 315.028 244.515 315.916 244.673C316.457 244.553 317.187 244.32 318.104 243.974L320.214 243.399L323.587 242.756C325.106 242.561 326.204 242.388 326.881 242.238L328.099 241.967C328.61 241.711 328.889 241.366 328.934 240.929C329.032 240.411 328.99 239.745 328.81 238.933L328.494 237.511C327.878 233.458 327.029 228.995 325.947 224.121L323.365 212.976C322.117 207.997 321.208 204.222 320.637 201.65C319.93 198.469 319.43 196.059 319.137 194.419L318.912 193.404C318.791 192.862 318.543 192.065 318.168 191.012C316.242 191.298 312.888 191.865 308.105 192.714L306.988 192.962ZM301.109 209.183C302.801 208.807 304.023 208.713 304.775 208.901C305.58 209.007 306.197 209.544 306.625 210.515C307.039 211.417 307.501 213.019 308.012 215.32L309.252 220.904C309.793 223.341 310.079 225.266 310.109 226.68C310.206 228.079 309.864 229.255 309.082 230.21C308.367 231.15 307.062 231.831 305.167 232.252C302.392 232.868 299.959 232.307 297.869 230.57C295.779 228.832 294.388 226.407 293.696 223.294C293.2 221.06 293.005 219.221 293.11 217.777C293.111 215.86 293.788 214.111 295.141 212.532C296.48 210.885 298.47 209.769 301.109 209.183ZM296.675 219.436C296.569 220.88 296.742 222.617 297.193 224.648C298.365 229.927 300.948 232.123 304.942 231.236C306.634 230.861 307.769 230.218 308.349 229.308C308.928 228.398 309.142 227.285 308.992 225.969C308.909 224.638 308.575 222.653 307.989 220.013L307.403 217.373L306.828 214.305C306.587 213.222 306.245 212.481 305.801 212.082C305.426 211.669 304.764 211.567 303.816 211.778C301.447 212.304 299.672 213.266 298.491 214.665C297.311 216.063 296.697 217.62 296.652 219.335L296.675 219.436ZM342.401 188.081C345.267 185.314 348.629 183.502 352.487 182.645C354.653 182.164 356.833 182.07 359.029 182.364C361.225 182.657 363.004 183.47 364.365 184.801L365.786 185.444C367.846 186.407 369.989 191.897 372.214 201.914C372.8 204.554 373.611 208.529 374.649 213.838C375.656 219.012 376.422 222.784 376.948 225.153C377.549 227.86 378.233 230.62 379 233.433C376.639 234.312 373.834 235.113 370.585 235.834L364.493 237.187C364.32 236.728 364.136 236.059 363.941 235.179L362.012 235.608C361.343 233.554 360.332 229.482 358.979 223.39L357.851 218.314C356.98 214.388 356.235 211.358 355.619 209.222C355.003 207.086 354.225 205.341 353.285 203.987C352.698 203.905 351.965 203.961 351.085 204.156C349.055 204.607 347.783 205.6 347.272 207.134C346.828 208.653 347.034 211.341 347.891 215.199C348.297 217.027 348.928 219.55 349.785 222.769C350.672 226.123 351.289 228.578 351.634 230.135C352.281 233.046 352.709 235.614 352.919 237.84L353.167 238.957C350.934 240.092 349.038 240.832 347.482 241.178C346.534 241.389 345.782 241.52 345.226 241.573L342.766 242.012L341.65 242.26C340.634 242.486 339.668 242.771 338.75 243.117L338.254 240.884L336.269 241.538L331.906 222.372C329.877 213.873 328.373 207.425 327.396 203.025C326.6 199.438 325.593 194.583 324.375 188.462C326.045 188.304 327.59 188.067 329.012 187.752C329.553 187.632 330.41 187.335 331.584 186.861C332.824 186.372 334.528 185.887 336.694 185.406C338.521 185.001 339.559 185.196 339.807 185.993C339.897 186.4 340.285 186.704 340.969 186.907C341.706 187.028 342.146 187.25 342.289 187.573L342.401 188.081ZM337.506 186.185C335.611 186.606 333.516 187.249 331.222 188.113C330.17 188.489 329.508 188.707 329.237 188.767L328.019 189.038C327.139 189.233 326.345 189.338 325.638 189.353C325.969 191.481 326.585 194.576 327.487 198.637L328.863 204.83C329.78 208.959 331.178 214.934 333.057 222.755L337.036 240.195C337.833 239.947 338.909 239.673 340.263 239.372L345.158 238.392C346.58 238.076 348.024 237.542 349.49 236.79L349.4 236.384C349.175 234.09 348.754 231.556 348.138 228.781C347.747 227.021 347.108 224.464 346.221 221.11C345.334 217.756 344.695 215.199 344.304 213.439C343.402 209.378 343.301 206.524 344.001 204.877C344.685 203.163 346.145 202.058 348.378 201.562C350.815 201.02 352.537 201.419 353.544 202.758C354.605 204.014 355.405 205.541 355.946 207.338C356.473 209.068 356.845 210.264 357.063 210.925C357.424 211.911 357.852 213.52 358.348 215.754L359.137 219.307L360.806 226.82L361.527 230.069C361.978 232.099 362.369 233.539 362.7 234.389L368.611 233.183C371.048 232.642 373.277 231.969 375.3 231.165C374.594 228.623 374.053 226.506 373.677 224.814C373.151 222.445 372.369 218.606 371.332 213.296C370.235 207.716 369.401 203.64 368.83 201.068C367.792 196.398 366.789 192.679 365.819 189.911C364.834 187.076 363.812 185.35 362.752 184.733C359.984 183.146 356.604 182.796 352.611 183.683C350.445 184.164 348.591 184.93 347.049 185.983C345.507 187.036 344.09 188.167 342.796 189.378C341.487 190.521 340.626 191.28 340.212 191.656L339.795 189.299C339.284 186.997 338.521 185.959 337.506 186.185ZM387.549 182.529C391.653 192.696 394.928 200.243 397.371 205.17L396.616 197.454C396.556 196.544 396.342 194.141 395.974 190.245C395.606 186.35 395.411 182.913 395.389 179.935C395.352 176.889 395.518 174.438 395.886 172.58L400.737 171.397C401.805 171.088 403.422 170.694 405.588 170.213C406.265 170.062 408.656 169.638 412.762 168.939C412.702 169.308 412.676 169.988 412.683 170.981L415.244 170.519C414.828 183.679 414.635 195.121 414.664 204.845C414.7 213.004 414.207 219.896 413.183 225.521C412.243 231.199 409.768 236.365 405.759 241.02C401.833 245.727 395.775 248.99 387.585 250.809L386.468 251.057C385.385 251.297 384.355 251.455 383.377 251.53C383.249 251.274 383.107 250.951 382.949 250.56C382.806 250.237 382.577 250.003 382.261 249.86C381.96 249.785 381.505 249.815 380.896 249.951C379.354 247.168 378.261 244.321 377.614 241.411C377.073 238.974 376.788 236.729 376.758 234.676L381.248 233.786C381.939 233.703 382.928 233.519 384.214 233.233C386.11 232.813 387.497 232.185 388.377 231.35C389.257 230.516 389.509 229.252 389.133 227.56C388.998 226.951 388.844 226.417 388.671 225.958L388.694 226.06C383.596 213.982 375.845 198.267 365.44 178.916C367.613 178.788 369.377 178.574 370.73 178.274L374.566 177.315L377.815 176.594C379.777 176.158 381.214 175.91 382.124 175.85L383.218 176.459C383.323 176.933 383.466 177.256 383.646 177.429C383.812 177.535 384.131 177.535 384.605 177.429L385.699 178.039L387.549 182.529ZM371.666 179.131L369.839 179.537C368.688 179.792 367.793 179.92 367.154 179.92C368.455 182.259 369.511 184.297 370.323 186.034C374.714 194.292 378.402 201.463 381.386 207.548C384.424 213.549 387.183 219.577 389.664 225.631C389.837 226.09 390.006 226.692 390.171 227.436C390.622 229.467 390.287 230.997 389.167 232.027C388.114 233.042 386.504 233.79 384.338 234.271C382.985 234.572 381.928 234.771 381.168 234.869L377.897 235.489C377.964 237.391 378.209 239.29 378.63 241.185C379.321 244.299 380.279 246.856 381.505 248.856C382.265 248.759 383.389 248.545 384.878 248.214C393.135 246.38 399.167 243.158 402.973 238.549C406.862 233.992 409.231 228.992 410.082 223.547C410.917 218.035 411.286 211.064 411.19 202.633C411.123 198.813 411.142 195.861 411.247 193.778L411.327 189.819C411.35 182.569 411.457 176.012 411.645 170.146C410.48 170.334 408.882 170.653 406.851 171.104L398.142 173.145L396.822 173.438C396.484 175.431 396.374 177.976 396.494 181.075C396.667 184.09 397.012 188.204 397.53 193.415C397.951 198.507 398.236 202.35 398.386 204.944C398.536 207.539 398.502 209.783 398.284 211.678C395.555 207.384 391.254 198.254 385.383 184.288L382.248 176.888C380.458 177.143 379.055 177.384 378.04 177.609L371.666 179.131ZM428.768 173.268C428.565 173.313 427.64 173.625 425.993 174.204C424.346 174.783 422.71 175.252 421.086 175.613C418.514 176.184 416.98 175.992 416.484 175.037L416.551 174.383C415.762 174.345 415.175 174.263 414.792 174.135C414.408 174.007 414.145 173.781 414.002 173.458C414.176 169.442 414.387 164.636 414.636 159.041C414.87 153.379 415.009 149.051 415.055 146.058L419.725 145.021L423.662 144.04C425.557 143.619 427.238 143.352 428.704 143.239C428.644 143.608 428.61 143.935 428.603 144.221C428.663 144.492 428.663 144.811 428.603 145.18C429.212 145.044 430.073 144.924 431.186 144.819L431.038 152.309C431.008 156.009 430.891 159.16 430.687 161.762C430.552 164.349 430.149 168.132 429.479 173.11L428.768 173.268ZM426.219 170.425C426.784 165.612 427.134 160.314 427.27 154.531C427.369 150.177 427.467 146.781 427.565 144.345L424.598 144.897L417.412 146.6L416.092 146.893C416.017 149.75 415.873 153.902 415.662 159.346C415.519 164.776 415.345 169.431 415.141 173.311C415.217 173.65 415.999 173.653 417.488 173.323C418.774 173.037 420.409 172.567 422.395 171.913C424.365 171.192 425.587 170.778 426.061 170.673L426.163 170.65L426.219 170.425ZM481.745 174.074C479.466 175.006 476.905 175.788 474.062 176.419C471.693 176.945 468.926 177.276 465.76 177.411L465.681 176.576C465.591 176.17 465.361 175.936 464.993 175.876C464.609 175.748 464.249 175.722 463.91 175.797C463.557 175.805 463.346 175.816 463.278 175.831L463.2 174.996C462.959 173.913 462.455 173.244 461.688 172.988C460.906 172.665 459.951 172.522 458.823 172.559C457.68 173.168 456.845 173.886 456.319 174.713C455.792 175.54 455.619 176.36 455.799 177.172C456.085 178.458 456.965 179.222 458.439 179.463L458.213 179.406C466.064 178.941 472.355 179.604 477.085 181.394C481.815 183.184 484.834 187.024 486.141 192.912C487.524 199.139 486.501 204.125 483.071 207.87C479.642 211.614 474.61 214.223 467.977 215.696C463.239 216.749 458.806 216.774 454.677 215.774C450.564 214.841 447.12 213.084 444.345 210.504C441.623 207.842 439.857 204.683 439.045 201.028L438.729 199.607C440.767 198.87 443.038 198.224 445.543 197.667L450.845 196.596C451.943 196.424 453.541 196.104 455.639 195.638C455.759 196.18 456.079 196.819 456.598 197.556L458.12 197.218C458.647 199.587 460.432 200.433 463.478 199.757C466.253 199.14 467.34 197.479 466.739 194.771C466.513 193.756 465.814 193.165 464.641 193C463.521 192.752 461.757 192.646 459.351 192.683C456.32 192.788 453.951 192.675 452.244 192.344L452.346 192.321C447.901 191.817 444.107 190.245 440.964 187.605C437.806 184.897 435.844 181.817 435.077 178.365C434.371 175.184 434.717 171.947 436.116 168.653C437.583 165.344 439.896 162.807 443.055 161.04C445.206 159.852 448.65 158.732 453.388 157.679C457.923 156.672 461.721 156.184 464.781 156.215C467.842 156.245 470.542 157.208 472.88 159.103C477.678 161.518 480.828 166.11 482.331 172.878L481.745 174.074ZM466.372 157.14C462.536 157.139 458.284 157.658 453.613 158.695C439.738 161.776 433.898 168.258 436.092 178.14C436.769 181.186 438.306 183.792 440.705 185.958C443.089 188.056 446.176 189.324 449.966 189.76C451.755 190.144 454.485 190.284 458.155 190.179C461.216 190.209 463.464 190.42 464.901 190.812C466.337 191.203 467.236 192.211 467.596 193.835C468.047 195.866 467.938 197.452 467.269 198.595C466.584 199.671 465.396 200.396 463.704 200.772C461.809 201.193 460.004 201.061 458.289 200.376C456.575 199.692 455.462 198.519 454.951 196.856L443.253 199.348C441.696 199.694 440.594 200.009 439.947 200.295L440.06 200.803C441.217 206.014 444.105 209.741 448.722 211.983C453.324 214.157 458.84 214.53 465.27 213.102C471.429 211.734 476.194 209.362 479.563 205.986C482.918 202.542 483.911 197.74 482.543 191.581C481.762 188.061 480.326 185.433 478.235 183.695C476.145 181.958 473.532 180.905 470.396 180.536C467.327 180.152 463.308 180.121 458.337 180.444C456.66 180.248 455.303 179.733 454.265 178.898C453.227 178.063 452.581 177.07 452.325 175.92C452.07 174.769 452.269 173.588 452.923 172.378C453.631 171.084 454.796 170.257 456.421 169.897C457.977 169.551 459.594 169.795 461.271 170.63C462.948 171.465 463.937 172.56 464.237 173.913C464.328 174.32 464.354 174.598 464.316 174.748C466.505 174.688 468.851 174.38 471.355 173.824C474.13 173.208 476.624 172.441 478.835 171.524C477.978 167.666 476.523 164.473 474.47 161.946C472.403 159.352 469.703 157.749 466.372 157.14Z" fill="black"/>
</g>
<defs>
<filter id="filter0_d" x="33.8628" y="106.67" width="158.052" height="96.0503" filterUnits="userSpaceOnUse" color-interpolation-filters="sRGB">
<feFlood flood-opacity="0" result="BackgroundImageFix"/>
<feColorMatrix in="SourceAlpha" type="matrix" values="0 0 0 0 0 0 0 0 0 0 0 0 0 0 0 0 0 0 127 0"/>
<feOffset dy="4"/>
<feGaussianBlur stdDeviation="2"/>
<feColorMatrix type="matrix" values="0 0 0 0 0 0 0 0 0 0 0 0 0 0 0 0 0 0 0.25 0"/>
<feBlend mode="normal" in2="BackgroundImageFix" result="effect1_dropShadow"/>
<feBlend mode="normal" in="SourceGraphic" in2="effect1_dropShadow" result="shape"/>
</filter>
<filter id="filter1_d" x="58.749" y="143.239" width="431.989" height="162.834" filterUnits="userSpaceOnUse" color-interpolation-filters="sRGB">
<feFlood flood-opacity="0" result="BackgroundImageFix"/>
<feColorMatrix in="SourceAlpha" type="matrix" values="0 0 0 0 0 0 0 0 0 0 0 0 0 0 0 0 0 0 127 0"/>
<feOffset dy="4"/>
<feGaussianBlur stdDeviation="2"/>
<feColorMatrix type="matrix" values="0 0 0 0 0 0 0 0 0 0 0 0 0 0 0 0 0 0 0.25 0"/>
<feBlend mode="normal" in2="BackgroundImageFix" result="effect1_dropShadow"/>
<feBlend mode="normal" in="SourceGraphic" in2="effect1_dropShadow" result="shape"/>
</filter>
</defs>
</svg>
